<?xml version="1.0" encoding="UTF-8" standalone="no"?><svg xmlns="http://www.w3.org/2000/svg" xmlns:xlink="http://www.w3.org/1999/xlink" contentScriptType="application/ecmascript" contentStyleType="text/css" height="732px" preserveAspectRatio="none" style="width:2238px;height:732px;background:#FFFFFF;" version="1.1" viewBox="0 0 2238 732" width="2238px" zoomAndPan="magnify"><defs><filter height="300%" id="f1c0a69t3ijcxs" width="300%" x="-1" y="-1"><feGaussianBlur result="blurOut" stdDeviation="2.0"/><feColorMatrix in="blurOut" result="blurOut2" type="matrix" values="0 0 0 0 0 0 0 0 0 0 0 0 0 0 0 0 0 0 .4 0"/><feOffset dx="4.0" dy="4.0" in="blurOut2" result="blurOut3"/><feBlend in="SourceGraphic" in2="blurOut3" mode="normal"/></filter></defs><g><!--MD5=[5d2bdee92db0d01b75732190da037553]
class Coordinator--><rect codeLine="8" fill="#FEFECE" filter="url(#f1c0a69t3ijcxs)" height="40" id="Coordinator" style="stroke:#A80036;stroke-width:1.5;" width="97" x="1339" y="184.3564"/><ellipse cx="1354" cy="200.3564" fill="#ADD1B2" rx="11" ry="11" style="stroke:#A80036;stroke-width:1.0;"/><path d="M1356,196.8564 Q1356.2031,196.3564 1356.4375,196.1064 Q1356.6719,195.8564 1356.9375,195.8564 Q1357.4063,195.8564 1357.7031,196.1377 Q1358,196.4189 1358,197.0752 L1358,198.6377 Q1358,199.2939 1357.7188,199.5752 Q1357.4375,199.8564 1357,199.8564 Q1356.6094,199.8564 1356.3594,199.6846 Q1356.1094,199.5127 1356,199.0596 Q1355.9531,198.7471 1355.7813,198.5752 Q1355.4688,198.2471 1354.9063,198.0596 Q1354.3438,197.8564 1353.7813,197.8564 Q1353.0781,197.8564 1352.4844,198.1377 Q1351.9063,198.4189 1351.4531,199.0439 Q1351,199.6689 1351,200.5283 L1351,201.4502 Q1351,202.4814 1351.8438,203.1689 Q1352.6875,203.8564 1354.1875,203.8564 Q1355.0781,203.8564 1355.7031,203.6533 Q1356.0625,203.5439 1356.4688,203.1846 Q1356.7344,202.9814 1356.875,202.9189 Q1357.0156,202.8564 1357.1875,202.8564 Q1357.5156,202.8564 1357.75,203.1221 Q1358,203.3721 1358,203.7314 Q1358,204.0752 1357.6563,204.4814 Q1357.1563,205.0752 1356.3594,205.4033 Q1355.3125,205.8564 1354.0313,205.8564 Q1352.5313,205.8564 1351.3281,205.2627 Q1350.3594,204.7939 1349.6719,203.7783 Q1349,202.7627 1349,201.5596 L1349,200.4658 Q1349,199.2158 1349.5938,198.1221 Q1350.2031,197.0283 1351.25,196.4502 Q1352.3125,195.8564 1353.5,195.8564 Q1354.2188,195.8564 1354.8438,196.1064 Q1355.4688,196.3564 1356,196.8564 Z " fill="#000000"/><text fill="#000000" font-family="sans-serif" font-size="12" lengthAdjust="spacing" textLength="65" x="1368" y="205.2666">Coordinator</text><line style="stroke:#A80036;stroke-width:1.5;" x1="1340" x2="1435" y1="216.3564" y2="216.3564"/><!--MD5=[a059576e163b46f56762f12600c49258]
class Nurse--><rect codeLine="12" fill="#FEFECE" filter="url(#f1c0a69t3ijcxs)" height="40" id="Nurse" style="stroke:#A80036;stroke-width:1.5;" width="66" x="475.5" y="113.3564"/><ellipse cx="490.5" cy="129.3564" fill="#ADD1B2" rx="11" ry="11" style="stroke:#A80036;stroke-width:1.0;"/><path d="M492.5,125.8564 Q492.7031,125.3564 492.9375,125.1064 Q493.1719,124.8564 493.4375,124.8564 Q493.9063,124.8564 494.2031,125.1377 Q494.5,125.4189 494.5,126.0752 L494.5,127.6377 Q494.5,128.2939 494.2188,128.5752 Q493.9375,128.8564 493.5,128.8564 Q493.1094,128.8564 492.8594,128.6846 Q492.6094,128.5127 492.5,128.0596 Q492.4531,127.7471 492.2813,127.5752 Q491.9688,127.2471 491.4063,127.0596 Q490.8438,126.8564 490.2813,126.8564 Q489.5781,126.8564 488.9844,127.1377 Q488.4063,127.4189 487.9531,128.0439 Q487.5,128.6689 487.5,129.5283 L487.5,130.4502 Q487.5,131.4814 488.3438,132.1689 Q489.1875,132.8564 490.6875,132.8564 Q491.5781,132.8564 492.2031,132.6533 Q492.5625,132.5439 492.9688,132.1846 Q493.2344,131.9814 493.375,131.9189 Q493.5156,131.8564 493.6875,131.8564 Q494.0156,131.8564 494.25,132.1221 Q494.5,132.3721 494.5,132.7314 Q494.5,133.0752 494.1563,133.4814 Q493.6563,134.0752 492.8594,134.4033 Q491.8125,134.8564 490.5313,134.8564 Q489.0313,134.8564 487.8281,134.2627 Q486.8594,133.7939 486.1719,132.7783 Q485.5,131.7627 485.5,130.5596 L485.5,129.4658 Q485.5,128.2158 486.0938,127.1221 Q486.7031,126.0283 487.75,125.4502 Q488.8125,124.8564 490,124.8564 Q490.7188,124.8564 491.3438,125.1064 Q491.9688,125.3564 492.5,125.8564 Z " fill="#000000"/><text fill="#000000" font-family="sans-serif" font-size="12" lengthAdjust="spacing" textLength="34" x="504.5" y="134.2666">Nurse</text><line style="stroke:#A80036;stroke-width:1.5;" x1="476.5" x2="540.5" y1="145.3564" y2="145.3564"/><!--MD5=[03960189e81aa2c066c762ffabbee709]
class Receptionist--><rect codeLine="17" fill="#FEFECE" filter="url(#f1c0a69t3ijcxs)" height="40" id="Receptionist" style="stroke:#A80036;stroke-width:1.5;" width="101" x="687" y="183.3564"/><ellipse cx="702" cy="199.3564" fill="#ADD1B2" rx="11" ry="11" style="stroke:#A80036;stroke-width:1.0;"/><path d="M704,195.8564 Q704.2031,195.3564 704.4375,195.1064 Q704.6719,194.8564 704.9375,194.8564 Q705.4063,194.8564 705.7031,195.1377 Q706,195.4189 706,196.0752 L706,197.6377 Q706,198.2939 705.7188,198.5752 Q705.4375,198.8564 705,198.8564 Q704.6094,198.8564 704.3594,198.6846 Q704.1094,198.5127 704,198.0596 Q703.9531,197.7471 703.7813,197.5752 Q703.4688,197.2471 702.9063,197.0596 Q702.3438,196.8564 701.7813,196.8564 Q701.0781,196.8564 700.4844,197.1377 Q699.9063,197.4189 699.4531,198.0439 Q699,198.6689 699,199.5283 L699,200.4502 Q699,201.4814 699.8438,202.1689 Q700.6875,202.8564 702.1875,202.8564 Q703.0781,202.8564 703.7031,202.6533 Q704.0625,202.5439 704.4688,202.1846 Q704.7344,201.9814 704.875,201.9189 Q705.0156,201.8564 705.1875,201.8564 Q705.5156,201.8564 705.75,202.1221 Q706,202.3721 706,202.7314 Q706,203.0752 705.6563,203.4814 Q705.1563,204.0752 704.3594,204.4033 Q703.3125,204.8564 702.0313,204.8564 Q700.5313,204.8564 699.3281,204.2627 Q698.3594,203.7939 697.6719,202.7783 Q697,201.7627 697,200.5596 L697,199.4658 Q697,198.2158 697.5938,197.1221 Q698.2031,196.0283 699.25,195.4502 Q700.3125,194.8564 701.5,194.8564 Q702.2188,194.8564 702.8438,195.1064 Q703.4688,195.3564 704,195.8564 Z " fill="#000000"/><text fill="#000000" font-family="sans-serif" font-size="12" lengthAdjust="spacing" textLength="69" x="716" y="204.2666">Receptionist</text><line style="stroke:#A80036;stroke-width:1.5;" x1="688" x2="787" y1="215.3564" y2="215.3564"/><!--MD5=[da547346deef918ea16944ba046651ef]
class Administrator--><rect codeLine="21" fill="#FEFECE" filter="url(#f1c0a69t3ijcxs)" height="40" id="Administrator" style="stroke:#A80036;stroke-width:1.5;" width="105" x="7" y="489.3564"/><ellipse cx="22" cy="505.3564" fill="#ADD1B2" rx="11" ry="11" style="stroke:#A80036;stroke-width:1.0;"/><path d="M24,501.8564 Q24.2031,501.3564 24.4375,501.1064 Q24.6719,500.8564 24.9375,500.8564 Q25.4063,500.8564 25.7031,501.1377 Q26,501.4189 26,502.0752 L26,503.6377 Q26,504.2939 25.7188,504.5752 Q25.4375,504.8564 25,504.8564 Q24.6094,504.8564 24.3594,504.6846 Q24.1094,504.5127 24,504.0596 Q23.9531,503.7471 23.7813,503.5752 Q23.4688,503.2471 22.9063,503.0596 Q22.3438,502.8564 21.7813,502.8564 Q21.0781,502.8564 20.4844,503.1377 Q19.9063,503.4189 19.4531,504.0439 Q19,504.6689 19,505.5283 L19,506.4502 Q19,507.4814 19.8438,508.1689 Q20.6875,508.8564 22.1875,508.8564 Q23.0781,508.8564 23.7031,508.6533 Q24.0625,508.5439 24.4688,508.1846 Q24.7344,507.9814 24.875,507.9189 Q25.0156,507.8564 25.1875,507.8564 Q25.5156,507.8564 25.75,508.1221 Q26,508.3721 26,508.7314 Q26,509.0752 25.6563,509.4814 Q25.1563,510.0752 24.3594,510.4033 Q23.3125,510.8564 22.0313,510.8564 Q20.5313,510.8564 19.3281,510.2627 Q18.3594,509.7939 17.6719,508.7783 Q17,507.7627 17,506.5596 L17,505.4658 Q17,504.2158 17.5938,503.1221 Q18.2031,502.0283 19.25,501.4502 Q20.3125,500.8564 21.5,500.8564 Q22.2188,500.8564 22.8438,501.1064 Q23.4688,501.3564 24,501.8564 Z " fill="#000000"/><text fill="#000000" font-family="sans-serif" font-size="12" lengthAdjust="spacing" textLength="73" x="36" y="510.2666">Administrator</text><line style="stroke:#A80036;stroke-width:1.5;" x1="8" x2="111" y1="521.3564" y2="521.3564"/><!--MD5=[7421f545a0d8420c5bec41e74b387d9c]
class Employee--><rect codeLine="26" fill="#FEFECE" filter="url(#f1c0a69t3ijcxs)" height="81.5078" id="Employee" style="stroke:#A80036;stroke-width:1.5;" width="93" x="240" y="165.3564"/><ellipse cx="257.7" cy="181.3564" fill="#ADD1B2" rx="11" ry="11" style="stroke:#A80036;stroke-width:1.0;"/><path d="M259.7,177.8564 Q259.9031,177.3564 260.1375,177.1064 Q260.3719,176.8564 260.6375,176.8564 Q261.1063,176.8564 261.4031,177.1377 Q261.7,177.4189 261.7,178.0752 L261.7,179.6377 Q261.7,180.2939 261.4188,180.5752 Q261.1375,180.8564 260.7,180.8564 Q260.3094,180.8564 260.0594,180.6846 Q259.8094,180.5127 259.7,180.0596 Q259.6531,179.7471 259.4813,179.5752 Q259.1688,179.2471 258.6063,179.0596 Q258.0438,178.8564 257.4813,178.8564 Q256.7781,178.8564 256.1844,179.1377 Q255.6063,179.4189 255.1531,180.0439 Q254.7,180.6689 254.7,181.5283 L254.7,182.4502 Q254.7,183.4814 255.5438,184.1689 Q256.3875,184.8564 257.8875,184.8564 Q258.7781,184.8564 259.4031,184.6533 Q259.7625,184.5439 260.1688,184.1846 Q260.4344,183.9814 260.575,183.9189 Q260.7156,183.8564 260.8875,183.8564 Q261.2156,183.8564 261.45,184.1221 Q261.7,184.3721 261.7,184.7314 Q261.7,185.0752 261.3563,185.4814 Q260.8563,186.0752 260.0594,186.4033 Q259.0125,186.8564 257.7313,186.8564 Q256.2313,186.8564 255.0281,186.2627 Q254.0594,185.7939 253.3719,184.7783 Q252.7,183.7627 252.7,182.5596 L252.7,181.4658 Q252.7,180.2158 253.2938,179.1221 Q253.9031,178.0283 254.95,177.4502 Q256.0125,176.8564 257.2,176.8564 Q257.9188,176.8564 258.5438,177.1064 Q259.1688,177.3564 259.7,177.8564 Z " fill="#000000"/><text fill="#000000" font-family="sans-serif" font-size="12" lengthAdjust="spacing" textLength="55" x="272.3" y="186.2666">Employee</text><line style="stroke:#A80036;stroke-width:1.5;" x1="241" x2="332" y1="197.3564" y2="197.3564"/><text fill="#000000" font-family="sans-serif" font-size="11" lengthAdjust="spacing" textLength="26" x="260" y="212.7754">name</text><text fill="#000000" font-family="sans-serif" font-size="11" lengthAdjust="spacing" textLength="67" x="260" y="226.6113">phoneNumber</text><text fill="#000000" font-family="sans-serif" font-size="11" lengthAdjust="spacing" textLength="66" x="260" y="240.4473">emailAddress</text><!--MD5=[de60e6d4f424ae4d0522096f76a59010]
class VaccinationCenter--><rect codeLine="32" fill="#FEFECE" filter="url(#f1c0a69t3ijcxs)" height="192.1953" id="VaccinationCenter" style="stroke:#A80036;stroke-width:1.5;" width="132" x="1111" y="213.3564"/><ellipse cx="1126" cy="229.3564" fill="#ADD1B2" rx="11" ry="11" style="stroke:#A80036;stroke-width:1.0;"/><path d="M1128,225.8564 Q1128.2031,225.3564 1128.4375,225.1064 Q1128.6719,224.8564 1128.9375,224.8564 Q1129.4063,224.8564 1129.7031,225.1377 Q1130,225.4189 1130,226.0752 L1130,227.6377 Q1130,228.2939 1129.7188,228.5752 Q1129.4375,228.8564 1129,228.8564 Q1128.6094,228.8564 1128.3594,228.6846 Q1128.1094,228.5127 1128,228.0596 Q1127.9531,227.7471 1127.7813,227.5752 Q1127.4688,227.2471 1126.9063,227.0596 Q1126.3438,226.8564 1125.7813,226.8564 Q1125.0781,226.8564 1124.4844,227.1377 Q1123.9063,227.4189 1123.4531,228.0439 Q1123,228.6689 1123,229.5283 L1123,230.4502 Q1123,231.4814 1123.8438,232.1689 Q1124.6875,232.8564 1126.1875,232.8564 Q1127.0781,232.8564 1127.7031,232.6533 Q1128.0625,232.5439 1128.4688,232.1846 Q1128.7344,231.9814 1128.875,231.9189 Q1129.0156,231.8564 1129.1875,231.8564 Q1129.5156,231.8564 1129.75,232.1221 Q1130,232.3721 1130,232.7314 Q1130,233.0752 1129.6563,233.4814 Q1129.1563,234.0752 1128.3594,234.4033 Q1127.3125,234.8564 1126.0313,234.8564 Q1124.5313,234.8564 1123.3281,234.2627 Q1122.3594,233.7939 1121.6719,232.7783 Q1121,231.7627 1121,230.5596 L1121,229.4658 Q1121,228.2158 1121.5938,227.1221 Q1122.2031,226.0283 1123.25,225.4502 Q1124.3125,224.8564 1125.5,224.8564 Q1126.2188,224.8564 1126.8438,225.1064 Q1127.4688,225.3564 1128,225.8564 Z " fill="#000000"/><text fill="#000000" font-family="sans-serif" font-size="12" lengthAdjust="spacing" textLength="100" x="1140" y="234.2666">VaccinationCenter</text><line style="stroke:#A80036;stroke-width:1.5;" x1="1112" x2="1242" y1="245.3564" y2="245.3564"/><text fill="#000000" font-family="sans-serif" font-size="11" lengthAdjust="spacing" textLength="26" x="1131" y="260.7754">name</text><text fill="#000000" font-family="sans-serif" font-size="11" lengthAdjust="spacing" textLength="40" x="1131" y="274.6113">address</text><text fill="#000000" font-family="sans-serif" font-size="11" lengthAdjust="spacing" textLength="67" x="1131" y="288.4473">phoneNumber</text><text fill="#000000" font-family="sans-serif" font-size="11" lengthAdjust="spacing" textLength="66" x="1131" y="302.2832">emailAddress</text><text fill="#000000" font-family="sans-serif" font-size="11" lengthAdjust="spacing" textLength="53" x="1131" y="316.1191">faxNumber</text><text fill="#000000" font-family="sans-serif" font-size="11" lengthAdjust="spacing" textLength="81" x="1131" y="329.9551">websiteAddress</text><text fill="#000000" font-family="sans-serif" font-size="11" lengthAdjust="spacing" textLength="67" x="1131" y="343.791">openingHours</text><text fill="#000000" font-family="sans-serif" font-size="11" lengthAdjust="spacing" textLength="63" x="1131" y="357.627">closingHours</text><text fill="#000000" font-family="sans-serif" font-size="11" lengthAdjust="spacing" textLength="57" x="1131" y="371.4629">slotDuration</text><text fill="#000000" font-family="sans-serif" font-size="11" lengthAdjust="spacing" textLength="95" x="1131" y="385.2988">maxNumVaxPerSlot</text><text fill="#000000" font-family="sans-serif" font-size="11" lengthAdjust="spacing" textLength="41" x="1131" y="399.1348">capacity</text><!--MD5=[c680266cf9e454ca06c2d1bb8b683e6b]
class Schedule--><rect codeLine="47" fill="#FEFECE" filter="url(#f1c0a69t3ijcxs)" height="53.8359" id="Schedule" style="stroke:#A80036;stroke-width:1.5;" width="84" x="906" y="236.3564"/><ellipse cx="921" cy="252.3564" fill="#ADD1B2" rx="11" ry="11" style="stroke:#A80036;stroke-width:1.0;"/><path d="M923,248.8564 Q923.2031,248.3564 923.4375,248.1064 Q923.6719,247.8564 923.9375,247.8564 Q924.4063,247.8564 924.7031,248.1377 Q925,248.4189 925,249.0752 L925,250.6377 Q925,251.2939 924.7188,251.5752 Q924.4375,251.8564 924,251.8564 Q923.6094,251.8564 923.3594,251.6846 Q923.1094,251.5127 923,251.0596 Q922.9531,250.7471 922.7813,250.5752 Q922.4688,250.2471 921.9063,250.0596 Q921.3438,249.8564 920.7813,249.8564 Q920.0781,249.8564 919.4844,250.1377 Q918.9063,250.4189 918.4531,251.0439 Q918,251.6689 918,252.5283 L918,253.4502 Q918,254.4814 918.8438,255.1689 Q919.6875,255.8564 921.1875,255.8564 Q922.0781,255.8564 922.7031,255.6533 Q923.0625,255.5439 923.4688,255.1846 Q923.7344,254.9814 923.875,254.9189 Q924.0156,254.8564 924.1875,254.8564 Q924.5156,254.8564 924.75,255.1221 Q925,255.3721 925,255.7314 Q925,256.0752 924.6563,256.4814 Q924.1563,257.0752 923.3594,257.4033 Q922.3125,257.8564 921.0313,257.8564 Q919.5313,257.8564 918.3281,257.2627 Q917.3594,256.7939 916.6719,255.7783 Q916,254.7627 916,253.5596 L916,252.4658 Q916,251.2158 916.5938,250.1221 Q917.2031,249.0283 918.25,248.4502 Q919.3125,247.8564 920.5,247.8564 Q921.2188,247.8564 921.8438,248.1064 Q922.4688,248.3564 923,248.8564 Z " fill="#000000"/><text fill="#000000" font-family="sans-serif" font-size="12" lengthAdjust="spacing" textLength="52" x="935" y="257.2666">Schedule</text><line style="stroke:#A80036;stroke-width:1.5;" x1="907" x2="989" y1="268.3564" y2="268.3564"/><text fill="#000000" font-family="sans-serif" font-size="11" lengthAdjust="spacing" textLength="43" x="926" y="283.7754">dateTime</text><!--MD5=[72be06cc7ae02ccc98efe28a50e62246]
class SNSUser--><rect codeLine="51" fill="#FEFECE" filter="url(#f1c0a69t3ijcxs)" height="109.1797" id="SNSUser" style="stroke:#A80036;stroke-width:1.5;" width="84" x="695.5" y="258.8564"/><ellipse cx="710.5" cy="274.8564" fill="#ADD1B2" rx="11" ry="11" style="stroke:#A80036;stroke-width:1.0;"/><path d="M712.5,271.3564 Q712.7031,270.8564 712.9375,270.6064 Q713.1719,270.3564 713.4375,270.3564 Q713.9063,270.3564 714.2031,270.6377 Q714.5,270.9189 714.5,271.5752 L714.5,273.1377 Q714.5,273.7939 714.2188,274.0752 Q713.9375,274.3564 713.5,274.3564 Q713.1094,274.3564 712.8594,274.1846 Q712.6094,274.0127 712.5,273.5596 Q712.4531,273.2471 712.2813,273.0752 Q711.9688,272.7471 711.4063,272.5596 Q710.8438,272.3564 710.2813,272.3564 Q709.5781,272.3564 708.9844,272.6377 Q708.4063,272.9189 707.9531,273.5439 Q707.5,274.1689 707.5,275.0283 L707.5,275.9502 Q707.5,276.9814 708.3438,277.6689 Q709.1875,278.3564 710.6875,278.3564 Q711.5781,278.3564 712.2031,278.1533 Q712.5625,278.0439 712.9688,277.6846 Q713.2344,277.4814 713.375,277.4189 Q713.5156,277.3564 713.6875,277.3564 Q714.0156,277.3564 714.25,277.6221 Q714.5,277.8721 714.5,278.2314 Q714.5,278.5752 714.1563,278.9814 Q713.6563,279.5752 712.8594,279.9033 Q711.8125,280.3564 710.5313,280.3564 Q709.0313,280.3564 707.8281,279.7627 Q706.8594,279.2939 706.1719,278.2783 Q705.5,277.2627 705.5,276.0596 L705.5,274.9658 Q705.5,273.7158 706.0938,272.6221 Q706.7031,271.5283 707.75,270.9502 Q708.8125,270.3564 710,270.3564 Q710.7188,270.3564 711.3438,270.6064 Q711.9688,270.8564 712.5,271.3564 Z " fill="#000000"/><text fill="#000000" font-family="sans-serif" font-size="12" lengthAdjust="spacing" textLength="52" x="724.5" y="279.7666">SNSUser</text><line style="stroke:#A80036;stroke-width:1.5;" x1="696.5" x2="778.5" y1="290.8564" y2="290.8564"/><text fill="#000000" font-family="sans-serif" font-size="11" lengthAdjust="spacing" textLength="55" x="715.5" y="306.2754">snsNumber</text><text fill="#000000" font-family="sans-serif" font-size="11" lengthAdjust="spacing" textLength="26" x="715.5" y="320.1113">name</text><text fill="#000000" font-family="sans-serif" font-size="11" lengthAdjust="spacing" textLength="18" x="715.5" y="333.9473">age</text><text fill="#000000" font-family="sans-serif" font-size="11" lengthAdjust="spacing" textLength="51" x="715.5" y="347.7832">phoneNum</text><text fill="#000000" font-family="sans-serif" font-size="11" lengthAdjust="spacing" textLength="24" x="715.5" y="361.6191">email</text><!--MD5=[0e501da62322464167c8ec4d233a6b7e]
class VaccineType--><rect codeLine="59" fill="#FEFECE" filter="url(#f1c0a69t3ijcxs)" height="53.8359" id="VaccineType" style="stroke:#A80036;stroke-width:1.5;" width="101" x="458" y="568.3564"/><ellipse cx="473" cy="584.3564" fill="#ADD1B2" rx="11" ry="11" style="stroke:#A80036;stroke-width:1.0;"/><path d="M475,580.8564 Q475.2031,580.3564 475.4375,580.1064 Q475.6719,579.8564 475.9375,579.8564 Q476.4063,579.8564 476.7031,580.1377 Q477,580.4189 477,581.0752 L477,582.6377 Q477,583.2939 476.7188,583.5752 Q476.4375,583.8564 476,583.8564 Q475.6094,583.8564 475.3594,583.6846 Q475.1094,583.5127 475,583.0596 Q474.9531,582.7471 474.7813,582.5752 Q474.4688,582.2471 473.9063,582.0596 Q473.3438,581.8564 472.7813,581.8564 Q472.0781,581.8564 471.4844,582.1377 Q470.9063,582.4189 470.4531,583.0439 Q470,583.6689 470,584.5283 L470,585.4502 Q470,586.4814 470.8438,587.1689 Q471.6875,587.8564 473.1875,587.8564 Q474.0781,587.8564 474.7031,587.6533 Q475.0625,587.5439 475.4688,587.1846 Q475.7344,586.9814 475.875,586.9189 Q476.0156,586.8564 476.1875,586.8564 Q476.5156,586.8564 476.75,587.1221 Q477,587.3721 477,587.7314 Q477,588.0752 476.6563,588.4814 Q476.1563,589.0752 475.3594,589.4033 Q474.3125,589.8564 473.0313,589.8564 Q471.5313,589.8564 470.3281,589.2627 Q469.3594,588.7939 468.6719,587.7783 Q468,586.7627 468,585.5596 L468,584.4658 Q468,583.2158 468.5938,582.1221 Q469.2031,581.0283 470.25,580.4502 Q471.3125,579.8564 472.5,579.8564 Q473.2188,579.8564 473.8438,580.1064 Q474.4688,580.3564 475,580.8564 Z " fill="#000000"/><text fill="#000000" font-family="sans-serif" font-size="12" lengthAdjust="spacing" textLength="69" x="487" y="589.2666">VaccineType</text><line style="stroke:#A80036;stroke-width:1.5;" x1="459" x2="558" y1="600.3564" y2="600.3564"/><text fill="#000000" font-family="sans-serif" font-size="11" lengthAdjust="spacing" textLength="38" x="478" y="615.7754">disease</text><!--MD5=[19e445fc4d3b48519cbe33da05496394]
class Vaccine--><rect codeLine="64" fill="#FEFECE" filter="url(#f1c0a69t3ijcxs)" height="67.6719" id="Vaccine" style="stroke:#A80036;stroke-width:1.5;" width="75" x="249" y="650.3564"/><ellipse cx="264" cy="666.3564" fill="#ADD1B2" rx="11" ry="11" style="stroke:#A80036;stroke-width:1.0;"/><path d="M266,662.8564 Q266.2031,662.3564 266.4375,662.1064 Q266.6719,661.8564 266.9375,661.8564 Q267.4063,661.8564 267.7031,662.1377 Q268,662.4189 268,663.0752 L268,664.6377 Q268,665.2939 267.7188,665.5752 Q267.4375,665.8564 267,665.8564 Q266.6094,665.8564 266.3594,665.6846 Q266.1094,665.5127 266,665.0596 Q265.9531,664.7471 265.7813,664.5752 Q265.4688,664.2471 264.9063,664.0596 Q264.3438,663.8564 263.7813,663.8564 Q263.0781,663.8564 262.4844,664.1377 Q261.9063,664.4189 261.4531,665.0439 Q261,665.6689 261,666.5283 L261,667.4502 Q261,668.4814 261.8438,669.1689 Q262.6875,669.8564 264.1875,669.8564 Q265.0781,669.8564 265.7031,669.6533 Q266.0625,669.5439 266.4688,669.1846 Q266.7344,668.9814 266.875,668.9189 Q267.0156,668.8564 267.1875,668.8564 Q267.5156,668.8564 267.75,669.1221 Q268,669.3721 268,669.7314 Q268,670.0752 267.6563,670.4814 Q267.1563,671.0752 266.3594,671.4033 Q265.3125,671.8564 264.0313,671.8564 Q262.5313,671.8564 261.3281,671.2627 Q260.3594,670.7939 259.6719,669.7783 Q259,668.7627 259,667.5596 L259,666.4658 Q259,665.2158 259.5938,664.1221 Q260.2031,663.0283 261.25,662.4502 Q262.3125,661.8564 263.5,661.8564 Q264.2188,661.8564 264.8438,662.1064 Q265.4688,662.3564 266,662.8564 Z " fill="#000000"/><text fill="#000000" font-family="sans-serif" font-size="12" lengthAdjust="spacing" textLength="43" x="278" y="671.2666">Vaccine</text><line style="stroke:#A80036;stroke-width:1.5;" x1="250" x2="323" y1="682.3564" y2="682.3564"/><text fill="#000000" font-family="sans-serif" font-size="11" lengthAdjust="spacing" textLength="26" x="269" y="697.7754">name</text><text fill="#000000" font-family="sans-serif" font-size="11" lengthAdjust="spacing" textLength="32" x="269" y="711.6113">lotNum</text><!--MD5=[f1aa797bbb856f196dbabe5d61960c3a]
class VaccinationProcess--><rect codeLine="70" fill="#FEFECE" filter="url(#f1c0a69t3ijcxs)" height="53.8359" id="VaccinationProcess" style="stroke:#A80036;stroke-width:1.5;" width="141" x="1561" y="177.3564"/><ellipse cx="1576" cy="193.3564" fill="#ADD1B2" rx="11" ry="11" style="stroke:#A80036;stroke-width:1.0;"/><path d="M1578,189.8564 Q1578.2031,189.3564 1578.4375,189.1064 Q1578.6719,188.8564 1578.9375,188.8564 Q1579.4063,188.8564 1579.7031,189.1377 Q1580,189.4189 1580,190.0752 L1580,191.6377 Q1580,192.2939 1579.7188,192.5752 Q1579.4375,192.8564 1579,192.8564 Q1578.6094,192.8564 1578.3594,192.6846 Q1578.1094,192.5127 1578,192.0596 Q1577.9531,191.7471 1577.7813,191.5752 Q1577.4688,191.2471 1576.9063,191.0596 Q1576.3438,190.8564 1575.7813,190.8564 Q1575.0781,190.8564 1574.4844,191.1377 Q1573.9063,191.4189 1573.4531,192.0439 Q1573,192.6689 1573,193.5283 L1573,194.4502 Q1573,195.4814 1573.8438,196.1689 Q1574.6875,196.8564 1576.1875,196.8564 Q1577.0781,196.8564 1577.7031,196.6533 Q1578.0625,196.5439 1578.4688,196.1846 Q1578.7344,195.9814 1578.875,195.9189 Q1579.0156,195.8564 1579.1875,195.8564 Q1579.5156,195.8564 1579.75,196.1221 Q1580,196.3721 1580,196.7314 Q1580,197.0752 1579.6563,197.4814 Q1579.1563,198.0752 1578.3594,198.4033 Q1577.3125,198.8564 1576.0313,198.8564 Q1574.5313,198.8564 1573.3281,198.2627 Q1572.3594,197.7939 1571.6719,196.7783 Q1571,195.7627 1571,194.5596 L1571,193.4658 Q1571,192.2158 1571.5938,191.1221 Q1572.2031,190.0283 1573.25,189.4502 Q1574.3125,188.8564 1575.5,188.8564 Q1576.2188,188.8564 1576.8438,189.1064 Q1577.4688,189.3564 1578,189.8564 Z " fill="#000000"/><text fill="#000000" font-family="sans-serif" font-size="12" lengthAdjust="spacing" textLength="109" x="1590" y="198.2666">VaccinationProcess</text><line style="stroke:#A80036;stroke-width:1.5;" x1="1562" x2="1701" y1="209.3564" y2="209.3564"/><text fill="#000000" font-family="sans-serif" font-size="11" lengthAdjust="spacing" textLength="74" x="1581" y="224.7754">recoveryPeriod</text><!--MD5=[1521e0ee13b0daafca355b24c7446017]
class ageGroup--><rect codeLine="74" fill="#FEFECE" filter="url(#f1c0a69t3ijcxs)" height="67.6719" id="ageGroup" style="stroke:#A80036;stroke-width:1.5;" width="87" x="1798" y="170.3564"/><ellipse cx="1813" cy="186.3564" fill="#ADD1B2" rx="11" ry="11" style="stroke:#A80036;stroke-width:1.0;"/><path d="M1815,182.8564 Q1815.2031,182.3564 1815.4375,182.1064 Q1815.6719,181.8564 1815.9375,181.8564 Q1816.4063,181.8564 1816.7031,182.1377 Q1817,182.4189 1817,183.0752 L1817,184.6377 Q1817,185.2939 1816.7188,185.5752 Q1816.4375,185.8564 1816,185.8564 Q1815.6094,185.8564 1815.3594,185.6846 Q1815.1094,185.5127 1815,185.0596 Q1814.9531,184.7471 1814.7813,184.5752 Q1814.4688,184.2471 1813.9063,184.0596 Q1813.3438,183.8564 1812.7813,183.8564 Q1812.0781,183.8564 1811.4844,184.1377 Q1810.9063,184.4189 1810.4531,185.0439 Q1810,185.6689 1810,186.5283 L1810,187.4502 Q1810,188.4814 1810.8438,189.1689 Q1811.6875,189.8564 1813.1875,189.8564 Q1814.0781,189.8564 1814.7031,189.6533 Q1815.0625,189.5439 1815.4688,189.1846 Q1815.7344,188.9814 1815.875,188.9189 Q1816.0156,188.8564 1816.1875,188.8564 Q1816.5156,188.8564 1816.75,189.1221 Q1817,189.3721 1817,189.7314 Q1817,190.0752 1816.6563,190.4814 Q1816.1563,191.0752 1815.3594,191.4033 Q1814.3125,191.8564 1813.0313,191.8564 Q1811.5313,191.8564 1810.3281,191.2627 Q1809.3594,190.7939 1808.6719,189.7783 Q1808,188.7627 1808,187.5596 L1808,186.4658 Q1808,185.2158 1808.5938,184.1221 Q1809.2031,183.0283 1810.25,182.4502 Q1811.3125,181.8564 1812.5,181.8564 Q1813.2188,181.8564 1813.8438,182.1064 Q1814.4688,182.3564 1815,182.8564 Z " fill="#000000"/><text fill="#000000" font-family="sans-serif" font-size="12" lengthAdjust="spacing" textLength="55" x="1827" y="191.2666">ageGroup</text><line style="stroke:#A80036;stroke-width:1.5;" x1="1799" x2="1884" y1="202.3564" y2="202.3564"/><text fill="#000000" font-family="sans-serif" font-size="11" lengthAdjust="spacing" textLength="36" x="1818" y="217.7754">minAge</text><text fill="#000000" font-family="sans-serif" font-size="11" lengthAdjust="spacing" textLength="40" x="1818" y="231.6113">maxAge</text><!--MD5=[899407dbda415ee9a6d5b7591ca16d35]
class dose--><rect codeLine="78" fill="#FEFECE" filter="url(#f1c0a69t3ijcxs)" height="67.6719" id="dose" style="stroke:#A80036;stroke-width:1.5;" width="87" x="2137" y="170.3564"/><ellipse cx="2164.15" cy="186.3564" fill="#ADD1B2" rx="11" ry="11" style="stroke:#A80036;stroke-width:1.0;"/><path d="M2166.15,182.8564 Q2166.3531,182.3564 2166.5875,182.1064 Q2166.8219,181.8564 2167.0875,181.8564 Q2167.5563,181.8564 2167.8531,182.1377 Q2168.15,182.4189 2168.15,183.0752 L2168.15,184.6377 Q2168.15,185.2939 2167.8688,185.5752 Q2167.5875,185.8564 2167.15,185.8564 Q2166.7594,185.8564 2166.5094,185.6846 Q2166.2594,185.5127 2166.15,185.0596 Q2166.1031,184.7471 2165.9313,184.5752 Q2165.6188,184.2471 2165.0563,184.0596 Q2164.4938,183.8564 2163.9313,183.8564 Q2163.2281,183.8564 2162.6344,184.1377 Q2162.0563,184.4189 2161.6031,185.0439 Q2161.15,185.6689 2161.15,186.5283 L2161.15,187.4502 Q2161.15,188.4814 2161.9938,189.1689 Q2162.8375,189.8564 2164.3375,189.8564 Q2165.2281,189.8564 2165.8531,189.6533 Q2166.2125,189.5439 2166.6188,189.1846 Q2166.8844,188.9814 2167.025,188.9189 Q2167.1656,188.8564 2167.3375,188.8564 Q2167.6656,188.8564 2167.9,189.1221 Q2168.15,189.3721 2168.15,189.7314 Q2168.15,190.0752 2167.8063,190.4814 Q2167.3063,191.0752 2166.5094,191.4033 Q2165.4625,191.8564 2164.1813,191.8564 Q2162.6813,191.8564 2161.4781,191.2627 Q2160.5094,190.7939 2159.8219,189.7783 Q2159.15,188.7627 2159.15,187.5596 L2159.15,186.4658 Q2159.15,185.2158 2159.7438,184.1221 Q2160.3531,183.0283 2161.4,182.4502 Q2162.4625,181.8564 2163.65,181.8564 Q2164.3688,181.8564 2164.9938,182.1064 Q2165.6188,182.3564 2166.15,182.8564 Z " fill="#000000"/><text fill="#000000" font-family="sans-serif" font-size="12" lengthAdjust="spacing" textLength="28" x="2180.85" y="191.2666">dose</text><line style="stroke:#A80036;stroke-width:1.5;" x1="2138" x2="2223" y1="202.3564" y2="202.3564"/><text fill="#000000" font-family="sans-serif" font-size="11" lengthAdjust="spacing" textLength="61" x="2157" y="217.7754">doseNumber</text><text fill="#000000" font-family="sans-serif" font-size="11" lengthAdjust="spacing" textLength="36" x="2157" y="231.6113">dosage</text><!--MD5=[89dcc450d03bdf5cd905c5a03edf2f7d]
class timeInterval--><rect codeLine="83" fill="#FEFECE" filter="url(#f1c0a69t3ijcxs)" height="53.8359" id="timeInterval" style="stroke:#A80036;stroke-width:1.5;" width="95" x="1981" y="241.3564"/><ellipse cx="1996" cy="257.3564" fill="#ADD1B2" rx="11" ry="11" style="stroke:#A80036;stroke-width:1.0;"/><path d="M1998,253.8564 Q1998.2031,253.3564 1998.4375,253.1064 Q1998.6719,252.8564 1998.9375,252.8564 Q1999.4063,252.8564 1999.7031,253.1377 Q2000,253.4189 2000,254.0752 L2000,255.6377 Q2000,256.2939 1999.7188,256.5752 Q1999.4375,256.8564 1999,256.8564 Q1998.6094,256.8564 1998.3594,256.6846 Q1998.1094,256.5127 1998,256.0596 Q1997.9531,255.7471 1997.7813,255.5752 Q1997.4688,255.2471 1996.9063,255.0596 Q1996.3438,254.8564 1995.7813,254.8564 Q1995.0781,254.8564 1994.4844,255.1377 Q1993.9063,255.4189 1993.4531,256.0439 Q1993,256.6689 1993,257.5283 L1993,258.4502 Q1993,259.4814 1993.8438,260.1689 Q1994.6875,260.8564 1996.1875,260.8564 Q1997.0781,260.8564 1997.7031,260.6533 Q1998.0625,260.5439 1998.4688,260.1846 Q1998.7344,259.9814 1998.875,259.9189 Q1999.0156,259.8564 1999.1875,259.8564 Q1999.5156,259.8564 1999.75,260.1221 Q2000,260.3721 2000,260.7314 Q2000,261.0752 1999.6563,261.4814 Q1999.1563,262.0752 1998.3594,262.4033 Q1997.3125,262.8564 1996.0313,262.8564 Q1994.5313,262.8564 1993.3281,262.2627 Q1992.3594,261.7939 1991.6719,260.7783 Q1991,259.7627 1991,258.5596 L1991,257.4658 Q1991,256.2158 1991.5938,255.1221 Q1992.2031,254.0283 1993.25,253.4502 Q1994.3125,252.8564 1995.5,252.8564 Q1996.2188,252.8564 1996.8438,253.1064 Q1997.4688,253.3564 1998,253.8564 Z " fill="#000000"/><text fill="#000000" font-family="sans-serif" font-size="12" lengthAdjust="spacing" textLength="63" x="2010" y="262.2666">timeInterval</text><line style="stroke:#A80036;stroke-width:1.5;" x1="1982" x2="2075" y1="273.3564" y2="273.3564"/><text fill="#000000" font-family="sans-serif" font-size="11" lengthAdjust="spacing" textLength="45" x="2001" y="288.7754">numDays</text><ellipse cx="2028.5" cy="204.3564" fill="#000000" rx="2" ry="2" style="stroke:none;stroke-width:1.0;"/><!--MD5=[b71b66caf67976638439c0d1a3790473]
link Employee to Nurse--><path codeLine="87" d="M333.37,190.4164 C343.14,187.0664 353.4,183.5664 363,180.3564 C401.52,167.4564 445.99,153.0664 475.31,143.6564 " fill="none" id="Employee-Nurse" style="stroke:#A80036;stroke-width:1.0;"/><polygon fill="#000000" points="383.2511,152.0967,392.7615,152.0579,390.9224,146.4752,383.2511,152.0967" style="stroke:#000000;stroke-width:1.0;"/><text fill="#000000" font-family="sans-serif" font-size="13" lengthAdjust="spacing" textLength="10" x="397" y="155.8516">is</text><text fill="#000000" font-family="sans-serif" font-size="13" lengthAdjust="spacing" textLength="7" x="341.0829" y="202.7603">1</text><text fill="#000000" font-family="sans-serif" font-size="13" lengthAdjust="spacing" textLength="7" x="460.2841" y="161.1931">1</text><!--MD5=[1da12df22706e73e1def33b218b7f412]
link Employee to Receptionist--><path codeLine="88" d="M333.02,206.0564 C417.74,205.4864 598.96,204.2764 686.77,203.6864 " fill="none" id="Employee-Receptionist" style="stroke:#A80036;stroke-width:1.0;"/><polygon fill="#000000" points="496.0001,195.5657,505.0647,198.444,505.0253,192.5663,496.0001,195.5657" style="stroke:#000000;stroke-width:1.0;"/><text fill="#000000" font-family="sans-serif" font-size="13" lengthAdjust="spacing" textLength="10" x="510" y="200.8516">is</text><text fill="#000000" font-family="sans-serif" font-size="13" lengthAdjust="spacing" textLength="7" x="340.9919" y="220.846">1</text><text fill="#000000" font-family="sans-serif" font-size="13" lengthAdjust="spacing" textLength="7" x="672.1439" y="218.3777">1</text><!--MD5=[d8cf155570c2fc8069691ea2f7bdb19f]
link Employee to Coordinator--><path codeLine="89" d="M312.36,165.0564 C348.18,111.3564 419.76,24.3564 507.5,24.3564 C507.5,24.3564 507.5,24.3564 1178,24.3564 C1274.84,24.3564 1348.93,136.9864 1375.68,184.0564 " fill="none" id="Employee-Coordinator" style="stroke:#A80036;stroke-width:1.0;"/><polygon fill="#000000" points="834.5008,15.4429,843.4919,18.543,843.5969,12.666,834.5008,15.4429" style="stroke:#000000;stroke-width:1.0;"/><text fill="#000000" font-family="sans-serif" font-size="13" lengthAdjust="spacing" textLength="10" x="848.5" y="20.8516">is</text><text fill="#000000" font-family="sans-serif" font-size="13" lengthAdjust="spacing" textLength="7" x="309.0634" y="154.4561">1</text><text fill="#000000" font-family="sans-serif" font-size="13" lengthAdjust="spacing" textLength="7" x="1364.3713" y="173.6416">1</text><!--MD5=[8f7dd94d56b58fc07b233ccd3dd98f8c]
link Administrator to Employee--><path codeLine="90" d="M75.61,489.0064 C112.22,439.7164 206.2,313.1464 255.03,247.3964 " fill="none" id="Administrator-Employee" style="stroke:#A80036;stroke-width:1.0;"/><polygon fill="#000000" points="149.981,299.518,142.2289,305.0276,146.9478,308.532,149.981,299.518" style="stroke:#000000;stroke-width:1.0;"/><text fill="#000000" font-family="sans-serif" font-size="13" lengthAdjust="spacing" textLength="53" x="156" y="308.8516">Manages</text><text fill="#000000" font-family="sans-serif" font-size="13" lengthAdjust="spacing" textLength="7" x="72.1566" y="478.5776">1</text><text fill="#000000" font-family="sans-serif" font-size="13" lengthAdjust="spacing" textLength="5" x="244.8283" y="268.4654">*</text><!--MD5=[7454cd36f47ee2c1597ee5b79ae5e9ce]
link Employee to VaccinationCenter--><path codeLine="92" d="M333.1,237.6264 C404.65,284.5964 549.37,371.2664 687,403.3564 C837.7,438.4964 1016.73,378.5364 1110.8,339.2864 " fill="none" id="Employee-VaccinationCenter" style="stroke:#A80036;stroke-width:1.0;"/><polygon fill="#000000" points="719.5422,393.8841,728.13,397.9707,728.8919,392.1424,719.5422,393.8841" style="stroke:#000000;stroke-width:1.0;"/><text fill="#000000" font-family="sans-serif" font-size="13" lengthAdjust="spacing" textLength="21" x="733.5" y="399.8516">has</text><text fill="#000000" font-family="sans-serif" font-size="13" lengthAdjust="spacing" textLength="5" x="340.9253" y="257.4475">*</text><text fill="#000000" font-family="sans-serif" font-size="13" lengthAdjust="spacing" textLength="5" x="1097.8566" y="357.1763">*</text><!--MD5=[2dda88ea48bea0f07bb8366b69b533a8]
link Nurse to VaccinationProcess--><path codeLine="94" d="M541.55,124.5464 C585.25,113.3164 666.17,95.3564 736.5,95.3564 C736.5,95.3564 736.5,95.3564 1388.5,95.3564 C1467.99,95.3564 1550.23,144.8464 1595.43,177.1364 " fill="none" id="Nurse-VaccinationProcess" style="stroke:#A80036;stroke-width:1.0;"/><polygon fill="#000000" points="1029.9938,86.7814,1021.1064,83.3953,1020.8135,89.2659,1029.9938,86.7814" style="stroke:#000000;stroke-width:1.0;"/><text fill="#000000" font-family="sans-serif" font-size="13" lengthAdjust="spacing" textLength="46" x="1034" y="91.8516">updates</text><text fill="#000000" font-family="sans-serif" font-size="13" lengthAdjust="spacing" textLength="5" x="549.3266" y="137.9028">*</text><text fill="#000000" font-family="sans-serif" font-size="13" lengthAdjust="spacing" textLength="7" x="1579.2794" y="166.5466">1</text><!--MD5=[44ce67b9ae4b4a4a3bd0ed01886d6243]
link Nurse to SNSUser--><path codeLine="95" d="M535.1,153.6564 C574.06,184.5464 648.62,243.6664 695.28,280.6664 " fill="none" id="Nurse-SNSUser" style="stroke:#A80036;stroke-width:1.0;"/><polygon fill="#000000" points="601.4178,190.6388,596.1564,182.7161,592.5044,187.3218,601.4178,190.6388" style="stroke:#000000;stroke-width:1.0;"/><text fill="#000000" font-family="sans-serif" font-size="13" lengthAdjust="spacing" textLength="46" x="606.5" y="192.8516">updates</text><text fill="#000000" font-family="sans-serif" font-size="13" lengthAdjust="spacing" textLength="7" x="534.3081" y="174.8044">1</text><text fill="#000000" font-family="sans-serif" font-size="13" lengthAdjust="spacing" textLength="5" x="682.5938" y="289.9327">*</text><!--MD5=[2bde3c2658e9820e0f62920496486001]
link Receptionist to VaccinationCenter--><path codeLine="97" d="M788.11,201.9164 C798.01,201.6864 808.34,201.4764 818,201.3564 C936.97,199.8564 973.51,200.3364 1081,251.3564 C1090.86,256.0364 1101,261.4764 1110.81,267.1164 " fill="none" id="Receptionist-VaccinationCenter" style="stroke:#A80036;stroke-width:1.0;"/><polygon fill="#000000" points="927.401,193.5224,919.1171,188.8504,917.953,194.6118,927.401,193.5224" style="stroke:#000000;stroke-width:1.0;"/><text fill="#000000" font-family="sans-serif" font-size="13" lengthAdjust="spacing" textLength="46" x="931.5" y="197.8516">updates</text><text fill="#000000" font-family="sans-serif" font-size="13" lengthAdjust="spacing" textLength="7" x="796.0574" y="198.0509">1</text><text fill="#000000" font-family="sans-serif" font-size="13" lengthAdjust="spacing" textLength="7" x="1096.1877" y="276.8751">1</text><!--MD5=[ad53276a02bf0f65971002ced984ee45]
link Vaccine to VaccinationProcess--><path codeLine="99" d="M324.09,683.8164 C367.75,683.2264 442.95,682.3564 507.5,682.3564 C507.5,682.3564 507.5,682.3564 1388.5,682.3564 C1592.2,682.3564 1624.49,332.5464 1629.56,231.4264 " fill="none" id="Vaccine-VaccinationProcess" style="stroke:#A80036;stroke-width:1.0;"/><polygon fill="#000000" points="939.7244,671.8951,930.2156,672.0798,932.1402,677.6336,939.7244,671.8951" style="stroke:#000000;stroke-width:1.0;"/><text fill="#000000" font-family="sans-serif" font-size="13" lengthAdjust="spacing" textLength="21" x="944" y="678.8516">has</text><text fill="#000000" font-family="sans-serif" font-size="13" lengthAdjust="spacing" textLength="7" x="331.9228" y="698.7984">1</text><text fill="#000000" font-family="sans-serif" font-size="13" lengthAdjust="spacing" textLength="7" x="1621.37" y="252.6495">1</text><!--MD5=[3568623adf67b2630dce9e60c05bd02a]
link Vaccine to VaccineType--><path codeLine="100" d="M324.32,669.4564 C360.9,654.6664 417.22,631.8764 457.76,615.4764 " fill="none" id="Vaccine-VaccineType" style="stroke:#A80036;stroke-width:1.0;"/><polygon fill="#000000" points="377.8649,621.4073,387.352,620.7398,385.1478,615.2908,377.8649,621.4073" style="stroke:#000000;stroke-width:1.0;"/><text fill="#000000" font-family="sans-serif" font-size="13" lengthAdjust="spacing" textLength="21" x="391.5" y="624.8516">has</text><text fill="#000000" font-family="sans-serif" font-size="13" lengthAdjust="spacing" textLength="5" x="332.006" y="681.701">*</text><text fill="#000000" font-family="sans-serif" font-size="13" lengthAdjust="spacing" textLength="7" x="443.1325" y="632.9622">1</text><!--MD5=[d431658dfb6974e729518daadc083b53]
link VaccinationProcess to ageGroup--><path codeLine="101" d="M1702.05,204.3564 C1733.7,204.3564 1770.15,204.3564 1797.7,204.3564 " fill="none" id="VaccinationProcess-ageGroup" style="stroke:#A80036;stroke-width:1.0;"/><polygon fill="#000000" points="1742,195.5322,1732.9549,192.5933,1732.9549,198.4712,1742,195.5322" style="stroke:#000000;stroke-width:1.0;"/><text fill="#000000" font-family="sans-serif" font-size="13" lengthAdjust="spacing" textLength="21" x="1746" y="200.8516">has</text><text fill="#000000" font-family="sans-serif" font-size="13" lengthAdjust="spacing" textLength="7" x="1710.1492" y="218.7548">1</text><text fill="#000000" font-family="sans-serif" font-size="13" lengthAdjust="spacing" textLength="5" x="1785.0316" y="219.2328">*</text><!--MD5=[0a519135499b2ea5c76cdfd704c650d7]
link ageGroup to apoint20419--><path d="M1885.41,204.3564 C1936.22,204.3564 2015.37,204.3564 2026.24,204.3564 " fill="none" id="ageGroup-apoint20419" style="stroke:#A80036;stroke-width:1.0;"/><polygon fill="#000000" points="1925,195.5322,1915.9549,192.5933,1915.9549,198.4712,1925,195.5322" style="stroke:#000000;stroke-width:1.0;"/><text fill="#000000" font-family="sans-serif" font-size="13" lengthAdjust="spacing" textLength="21" x="1929" y="200.8516">has</text><text fill="#000000" font-family="sans-serif" font-size="13" lengthAdjust="spacing" textLength="7" x="1892.966" y="219.1807">1</text><!--MD5=[a89788cadbcb70e32717467c4182a697]
link apoint20419 to dose--><path d="M2030.8,204.3564 C2039.99,204.3564 2096.11,204.3564 2136.69,204.3564 " fill="none" id="apoint20419-dose" style="stroke:#A80036;stroke-width:1.0;"/><text fill="#000000" font-family="sans-serif" font-size="13" lengthAdjust="spacing" textLength="5" x="2124.0199" y="219.2328">*</text><!--MD5=[e1de8ec14833e2bc6023da74398495aa]
link apoint20419 to timeInterval--><path d="M2028.5,206.3764 C2028.5,218.0364 2028.5,229.6964 2028.5,241.3564 " fill="none" id="apoint20419-timeInterval" style="stroke:#A80036;stroke-width:1.0;stroke-dasharray:7.0,7.0;"/><!--MD5=[365ff630f9f838a80248091f1b038ffe]
link VaccinationCenter to SNSUser--><path codeLine="106" d="M1110.68,316.7964 C1075.06,320.4764 1030.17,324.5264 990,326.3564 C952.71,328.0564 943.31,327.8064 906,326.3564 C862.86,324.6864 813.62,320.5964 779.75,317.4564 " fill="none" id="VaccinationCenter-SNSUser" style="stroke:#A80036;stroke-width:1.0;"/><polygon fill="#000000" points="930,317.5422,939.0509,320.4631,939.0392,314.5852,930,317.5422" style="stroke:#000000;stroke-width:1.0;"/><text fill="#000000" font-family="sans-serif" font-size="13" lengthAdjust="spacing" textLength="21" x="944" y="322.8516">has</text><text fill="#000000" font-family="sans-serif" font-size="13" lengthAdjust="spacing" textLength="7" x="1096.0434" y="331.9889">1</text><text fill="#000000" font-family="sans-serif" font-size="13" lengthAdjust="spacing" textLength="5" x="787.4414" y="333.046">*</text><!--MD5=[49dab45482ce825a685ef99fd95a9156]
link VaccinationCenter to Coordinator--><path codeLine="107" d="M1243.11,276.5664 C1277.05,259.4764 1317.45,239.1264 1346.71,224.3964 " fill="none" id="VaccinationCenter-Coordinator" style="stroke:#A80036;stroke-width:1.0;"/><polygon fill="#000000" points="1282.4657,233.2834,1273.0653,234.7267,1275.709,239.9765,1282.4657,233.2834" style="stroke:#000000;stroke-width:1.0;"/><text fill="#000000" font-family="sans-serif" font-size="13" lengthAdjust="spacing" textLength="21" x="1287" y="240.8516">has</text><text fill="#000000" font-family="sans-serif" font-size="13" lengthAdjust="spacing" textLength="7" x="1251.1587" y="287.2043">1</text><text fill="#000000" font-family="sans-serif" font-size="13" lengthAdjust="spacing" textLength="7" x="1327.2534" y="245.8273">1</text><!--MD5=[7f45cd623d65d6b71bd9dc1a08827f9d]
link Coordinator to VaccinationProcess--><path codeLine="109" d="M1436.02,204.3564 C1471.54,204.3564 1520.64,204.3564 1560.62,204.3564 " fill="none" id="Coordinator-VaccinationProcess" style="stroke:#A80036;stroke-width:1.0;"/><polygon fill="#000000" points="1476,195.5322,1466.9549,192.5933,1466.9549,198.4712,1476,195.5322" style="stroke:#000000;stroke-width:1.0;"/><text fill="#000000" font-family="sans-serif" font-size="13" lengthAdjust="spacing" textLength="50" x="1480" y="200.8516">monitors</text><text fill="#000000" font-family="sans-serif" font-size="13" lengthAdjust="spacing" textLength="7" x="1443.9856" y="219.1035">1</text><text fill="#000000" font-family="sans-serif" font-size="13" lengthAdjust="spacing" textLength="5" x="1548.0527" y="218.7031">*</text><!--MD5=[5bd8abec604a5efddd0fd669773de516]
link Receptionist to Schedule--><path codeLine="111" d="M788.18,217.6564 C824.07,227.9764 871.98,241.7664 905.77,251.4864 " fill="none" id="Receptionist-Schedule" style="stroke:#A80036;stroke-width:1.0;"/><polygon fill="#000000" points="827.8051,219.9146,819.9251,214.5895,818.3,220.2382,827.8051,219.9146" style="stroke:#000000;stroke-width:1.0;"/><text fill="#000000" font-family="sans-serif" font-size="13" lengthAdjust="spacing" textLength="43" x="832" y="223.8516">creates</text><text fill="#000000" font-family="sans-serif" font-size="13" lengthAdjust="spacing" textLength="7" x="796.1377" y="234.4527">1</text><text fill="#000000" font-family="sans-serif" font-size="13" lengthAdjust="spacing" textLength="5" x="893.082" y="264.3607">*</text><!--MD5=[b663e1a5626dc490590fd67fca32619d]
link Schedule to VaccinationCenter--><path codeLine="114" d="M990.11,271.6864 C1023.71,278.4964 1071.84,288.2464 1110.71,296.1264 " fill="none" id="Schedule-VaccinationCenter" style="stroke:#A80036;stroke-width:1.0;"/><polygon fill="#000000" points="1032.5996,267.5391,1040.8808,272.216,1042.0482,266.4553,1032.5996,267.5391" style="stroke:#000000;stroke-width:1.0;"/><text fill="#000000" font-family="sans-serif" font-size="13" lengthAdjust="spacing" textLength="21" x="1046.5" y="273.8516">has</text><text fill="#000000" font-family="sans-serif" font-size="13" lengthAdjust="spacing" textLength="5" x="998.0562" y="288.1363">*</text><text fill="#000000" font-family="sans-serif" font-size="13" lengthAdjust="spacing" textLength="7" x="1096.0767" y="309.0581">1</text><!--MD5=[1073ccc13c21b6bdbf5afe44f6e76236]
link SNSUser to Schedule--><path codeLine="116" d="M779.69,303.4764 C816.25,294.7164 869.37,281.9764 905.89,273.2164 " fill="none" id="SNSUser-Schedule" style="stroke:#A80036;stroke-width:1.0;"/><polygon fill="#000000" points="827.8622,270.3664,818.3811,269.6175,819.7517,275.3333,827.8622,270.3664" style="stroke:#000000;stroke-width:1.0;"/><text fill="#000000" font-family="sans-serif" font-size="13" lengthAdjust="spacing" textLength="43" x="832" y="276.8516">creates</text><text fill="#000000" font-family="sans-serif" font-size="13" lengthAdjust="spacing" textLength="7" x="787.543" y="297.9132">1</text><text fill="#000000" font-family="sans-serif" font-size="13" lengthAdjust="spacing" textLength="5" x="892.9438" y="289.9388">*</text><!--MD5=[d497e8607f1e7b3d570c70d67196006d]
link Administrator to VaccinationCenter--><path codeLine="118" d="M112.33,509.3564 C157.94,509.3564 226.12,509.3564 285.5,509.3564 C285.5,509.3564 285.5,509.3564 949,509.3564 C1017.94,509.3564 1075.86,456.7864 1115.93,405.5464 " fill="none" id="Administrator-VaccinationCenter" style="stroke:#A80036;stroke-width:1.0;"/><polygon fill="#000000" points="598.9735,500.0178,589.674,498.0251,590.2788,503.8717,598.9735,500.0178" style="stroke:#000000;stroke-width:1.0;"/><text fill="#000000" font-family="sans-serif" font-size="13" lengthAdjust="spacing" textLength="53" x="603" y="505.8516">manages</text><text fill="#000000" font-family="sans-serif" font-size="13" lengthAdjust="spacing" textLength="7" x="119.8993" y="523.9502">1</text><text fill="#000000" font-family="sans-serif" font-size="13" lengthAdjust="spacing" textLength="5" x="1106.0629" y="427.0246">*</text><!--MD5=[2b5fc2dce8eec1aafb1a3721aa50d3a4]
link Administrator to SNSUser--><path codeLine="119" d="M112.09,492.3664 C121.98,489.2564 132.29,486.1264 142,483.3564 C268.05,447.4164 301.92,447.2164 428,411.3564 C524.48,383.9164 636.4,347.0964 695.33,327.3164 " fill="none" id="Administrator-SNSUser" style="stroke:#A80036;stroke-width:1.0;"/><polygon fill="#000000" points="372.8111,401.1708,363.3075,400.8058,364.908,406.4616,372.8111,401.1708" style="stroke:#000000;stroke-width:1.0;"/><text fill="#000000" font-family="sans-serif" font-size="13" lengthAdjust="spacing" textLength="50" x="377" y="407.8516">registers</text><text fill="#000000" font-family="sans-serif" font-size="13" lengthAdjust="spacing" textLength="7" x="119.9777" y="504.6221">1</text><text fill="#000000" font-family="sans-serif" font-size="13" lengthAdjust="spacing" textLength="5" x="682.3732" y="344.7385">*</text><!--MD5=[0e439f75a3d966f965fe5f237a1bacbe]
link Administrator to Vaccine--><path codeLine="120" d="M70.22,529.4364 C83.35,554.6764 108.95,597.8964 142,624.3564 C173.83,649.8364 218.04,666.1364 248.94,675.2164 " fill="none" id="Administrator-Vaccine" style="stroke:#A80036;stroke-width:1.0;"/><polygon fill="#000000" points="150.8745,618.6926,145.7231,610.698,142.0078,615.2528,150.8745,618.6926" style="stroke:#000000;stroke-width:1.0;"/><text fill="#000000" font-family="sans-serif" font-size="13" lengthAdjust="spacing" textLength="53" x="156" y="620.8516">manages</text><text fill="#000000" font-family="sans-serif" font-size="13" lengthAdjust="spacing" textLength="7" x="65.2506" y="550.8785">1</text><text fill="#000000" font-family="sans-serif" font-size="13" lengthAdjust="spacing" textLength="5" x="236.0532" y="688.554">*</text><!--MD5=[d0b477519989ed3601cd00d052224350]
link Administrator to VaccineType--><path codeLine="121" d="M112.39,526.9964 C122.16,530.0064 132.35,532.9364 142,535.3564 C253.35,563.2264 387.12,581.3964 457.9,589.8464 " fill="none" id="Administrator-VaccineType" style="stroke:#A80036;stroke-width:1.0;"/><polygon fill="#000000" points="262.4193,548.4271,254.0462,543.9168,252.9942,549.6998,262.4193,548.4271" style="stroke:#000000;stroke-width:1.0;"/><text fill="#000000" font-family="sans-serif" font-size="13" lengthAdjust="spacing" textLength="53" x="266.5" y="552.8516">manages</text><text fill="#000000" font-family="sans-serif" font-size="13" lengthAdjust="spacing" textLength="7" x="119.9674" y="543.9606">1</text><text fill="#000000" font-family="sans-serif" font-size="13" lengthAdjust="spacing" textLength="5" x="445.1009" y="603.7451">*</text><!--MD5=[734bdde575676762d1c9f976eb2ab698]
@startuml
hide methods
left to right direction
skinparam classAttributeIconSize 3




class Coordinator{

}

class Nurse {


}

class Receptionist{

}

class Administrator{

}


class Employee{
    -name
    -phoneNumber
    -emailAddress
}

class VaccinationCenter {
    -name
    -address
    -phoneNumber
    -emailAddress
    -faxNumber
    -websiteAddress
    -openingHours
    -closingHours
    -slotDuration
    -maxNumVaxPerSlot
    -capacity

}

class Schedule{
    -dateTime
}

class SNSUser {
    -snsNumber
    -name
    -age
    -phoneNum
    -email
}

class VaccineType{
    -disease

}

class Vaccine{
    -name
    -lotNum
}


class VaccinationProcess{
    -recoveryPeriod
}

class ageGroup{
    -minAge
    -maxAge
}
class dose{
    -doseNumber
    -dosage
}

class timeInterval{
    -numDays
}

Employee "1" - - "1" Nurse: is <
Employee "1" - - "1" Receptionist: is <
Employee "1" - - "1" Coordinator: is <
Administrator "1" - - "*" Employee: Manages >

Employee "*" - - "*" VaccinationCenter: has <

Nurse "*" - - "1" VaccinationProcess: updates >
Nurse "1" - - "*" SNSUser: updates >

Receptionist "1" - - "1" VaccinationCenter: updates >

Vaccine "1" - - "1" VaccinationProcess: has >
Vaccine "*" - - "1" VaccineType: has <
VaccinationProcess "1" - - "*" ageGroup: has >
ageGroup "1" - - "*" dose: has >
(ageGroup, dose) .. timeInterval


VaccinationCenter "1" - - "*" SNSUser: has >
VaccinationCenter "1" - - "1" Coordinator: has >

Coordinator "1" - - "*" VaccinationProcess: monitors >

Receptionist "1" - - "*" Schedule: creates >


Schedule "*" - - "1" VaccinationCenter: has <

SNSUser "1" - - "*" Schedule: creates >

Administrator "1" - - "*" VaccinationCenter: manages >
Administrator "1" - - "*" SNSUser: registers >
Administrator "1" - - "*" Vaccine: manages >
Administrator "1" - - "*" VaccineType: manages >


@enduml

PlantUML version 1.2022.1(Tue Feb 01 18:19:58 GMT 2022)
(GPL source distribution)
Java Runtime: OpenJDK Runtime Environment
JVM: OpenJDK 64-Bit Server VM
Default Encoding: Cp1252
Language: en
Country: GB
--></g></svg>