<?xml version="1.0" encoding="UTF-8" standalone="no"?><svg xmlns="http://www.w3.org/2000/svg" xmlns:xlink="http://www.w3.org/1999/xlink" contentScriptType="application/ecmascript" contentStyleType="text/css" height="411px" preserveAspectRatio="none" style="width:2377px;height:411px;background:#FFFFFF;" version="1.1" viewBox="0 0 2377 411" width="2377px" zoomAndPan="magnify"><defs><filter height="300%" id="forpuw3p72o94" width="300%" x="-1" y="-1"><feGaussianBlur result="blurOut" stdDeviation="2.0"/><feColorMatrix in="blurOut" result="blurOut2" type="matrix" values="0 0 0 0 0 0 0 0 0 0 0 0 0 0 0 0 0 0 .4 0"/><feOffset dx="4.0" dy="4.0" in="blurOut2" result="blurOut3"/><feBlend in="SourceGraphic" in2="blurOut3" mode="normal"/></filter></defs><g><!--MD5=[97ab183161fd5d1db7fba7485cf76add]
entity Admin--><ellipse cx="147.5" cy="84.3" fill="#FEFECE" filter="url(#forpuw3p72o94)" rx="8" ry="8" style="stroke:#A80036;stroke-width:1.5;"/><path d="M147.5,92.3 L147.5,119.3 M134.5,100.3 L160.5,100.3 M147.5,119.3 L134.5,134.3 M147.5,119.3 L160.5,134.3 " fill="none" filter="url(#forpuw3p72o94)" style="stroke:#A80036;stroke-width:1.5;"/><text fill="#000000" font-family="sans-serif" font-size="14" lengthAdjust="spacing" textLength="83" x="106" y="154.3332">Administrator</text><!--MD5=[c8b2cb7ab209025f476c1467c68b906a]
entity Nurse--><ellipse cx="1080.5" cy="84.3" fill="#FEFECE" filter="url(#forpuw3p72o94)" rx="8" ry="8" style="stroke:#A80036;stroke-width:1.5;"/><path d="M1080.5,92.3 L1080.5,119.3 M1067.5,100.3 L1093.5,100.3 M1080.5,119.3 L1067.5,134.3 M1080.5,119.3 L1093.5,134.3 " fill="none" filter="url(#forpuw3p72o94)" style="stroke:#A80036;stroke-width:1.5;"/><text fill="#000000" font-family="sans-serif" font-size="14" lengthAdjust="spacing" textLength="37" x="1062" y="154.3332">Nurse</text><!--MD5=[fddc9dd69bf706990050a33f5f6a7b20]
entity Receptionists--><ellipse cx="654.5" cy="84.3" fill="#FEFECE" filter="url(#forpuw3p72o94)" rx="8" ry="8" style="stroke:#A80036;stroke-width:1.5;"/><path d="M654.5,92.3 L654.5,119.3 M641.5,100.3 L667.5,100.3 M654.5,119.3 L641.5,134.3 M654.5,119.3 L667.5,134.3 " fill="none" filter="url(#forpuw3p72o94)" style="stroke:#A80036;stroke-width:1.5;"/><text fill="#000000" font-family="sans-serif" font-size="14" lengthAdjust="spacing" textLength="85" x="612" y="154.3332">Receptionists</text><!--MD5=[fee662a292a0353a69bd162820bae93b]
entity User--><ellipse cx="1726.5" cy="84.3" fill="#FEFECE" filter="url(#forpuw3p72o94)" rx="8" ry="8" style="stroke:#A80036;stroke-width:1.5;"/><path d="M1726.5,92.3 L1726.5,119.3 M1713.5,100.3 L1739.5,100.3 M1726.5,119.3 L1713.5,134.3 M1726.5,119.3 L1739.5,134.3 " fill="none" filter="url(#forpuw3p72o94)" style="stroke:#A80036;stroke-width:1.5;"/><text fill="#000000" font-family="sans-serif" font-size="14" lengthAdjust="spacing" textLength="60" x="1696.5" y="154.3332">SNS User</text><!--MD5=[36dc586d67e0f1d076b0ce70c9875d3e]
entity CC--><ellipse cx="2063.5" cy="84.3" fill="#FEFECE" filter="url(#forpuw3p72o94)" rx="8" ry="8" style="stroke:#A80036;stroke-width:1.5;"/><path d="M2063.5,92.3 L2063.5,119.3 M2050.5,100.3 L2076.5,100.3 M2063.5,119.3 L2050.5,134.3 M2063.5,119.3 L2076.5,134.3 " fill="none" filter="url(#forpuw3p72o94)" style="stroke:#A80036;stroke-width:1.5;"/><text fill="#000000" font-family="sans-serif" font-size="14" lengthAdjust="spacing" textLength="122" x="2002.5" y="154.3332">Center Coordinator</text><ellipse cx="147.6734" cy="248.5347" fill="#FEFECE" filter="url(#forpuw3p72o94)" rx="141.6734" ry="30.7347" style="stroke:#A80036;stroke-width:1.5;"/><text fill="#000000" font-family="sans-serif" font-size="14" lengthAdjust="spacing" textLength="251" x="22.1734" y="252.2632">Configure and manage core information</text><ellipse cx="400.5701" cy="116.414" fill="#FEFECE" filter="url(#forpuw3p72o94)" rx="176.0701" ry="37.614" style="stroke:#A80036;stroke-width:1.5;"/><text fill="#000000" font-family="sans-serif" font-size="14" lengthAdjust="spacing" textLength="286" x="257.5701" y="111.3378">Register Centers, Users, center coordinators,</text><text fill="#000000" font-family="sans-serif" font-size="14" lengthAdjust="spacing" textLength="127" x="337.0701" y="128.9472">receptionists,nurses</text><ellipse cx="654.5017" cy="248.3003" fill="#FEFECE" filter="url(#forpuw3p72o94)" rx="93.0017" ry="21.0003" style="stroke:#A80036;stroke-width:1.5;"/><text fill="#000000" font-family="sans-serif" font-size="14" lengthAdjust="spacing" textLength="145" x="582.0017" y="252.0289">Register arrival of User</text><ellipse cx="879.2773" cy="116.0555" fill="#FEFECE" filter="url(#forpuw3p72o94)" rx="146.7773" ry="31.7555" style="stroke:#A80036;stroke-width:1.5;"/><text fill="#000000" font-family="sans-serif" font-size="14" lengthAdjust="spacing" textLength="215" x="768.7773" y="111.7674">Acknowledge system that the user</text><text fill="#000000" font-family="sans-serif" font-size="14" lengthAdjust="spacing" textLength="146" x="805.2773" y="129.3768">is ready for vaccination</text><ellipse cx="1002.7255" cy="248.3451" fill="#FEFECE" filter="url(#forpuw3p72o94)" rx="140.7255" ry="30.5451" style="stroke:#A80036;stroke-width:1.5;"/><text fill="#000000" font-family="sans-serif" font-size="14" lengthAdjust="spacing" textLength="249" x="878.2255" y="252.0736">Issue and Deliver vaccination certificate</text><ellipse cx="1512.3283" cy="116.3657" fill="#FEFECE" filter="url(#forpuw3p72o94)" rx="148.3283" ry="32.0657" style="stroke:#A80036;stroke-width:1.5;"/><text fill="#000000" font-family="sans-serif" font-size="14" lengthAdjust="spacing" textLength="265" x="1379.8283" y="120.0942">Check list of Users present for vaccination</text><ellipse cx="1196.305" cy="369.061" fill="#FEFECE" filter="url(#forpuw3p72o94)" rx="139.305" ry="30.261" style="stroke:#A80036;stroke-width:1.5;"/><text fill="#000000" font-family="sans-serif" font-size="14" lengthAdjust="spacing" textLength="246" x="1073.305" y="372.7895">Check Users Info and health conditions</text><ellipse cx="1231.3945" cy="116.1789" fill="#FEFECE" filter="url(#forpuw3p72o94)" rx="97.3945" ry="21.8789" style="stroke:#A80036;stroke-width:1.5;"/><text fill="#000000" font-family="sans-serif" font-size="14" lengthAdjust="spacing" textLength="155" x="1153.8945" y="119.9074">Register event in system</text><ellipse cx="1641.3554" cy="248.0711" fill="#FEFECE" filter="url(#forpuw3p72o94)" rx="116.8554" ry="25.7711" style="stroke:#A80036;stroke-width:1.5;"/><text fill="#000000" font-family="sans-serif" font-size="14" lengthAdjust="spacing" textLength="198" x="1542.3554" y="251.7996">Request Vaccination Certificate</text><ellipse cx="1879.7471" cy="116.3494" fill="#FEFECE" filter="url(#forpuw3p72o94)" rx="88.2471" ry="20.0494" style="stroke:#A80036;stroke-width:1.5;"/><text fill="#000000" font-family="sans-serif" font-size="14" lengthAdjust="spacing" textLength="134" x="1812.7471" y="120.0779">Schedule vaccination</text><ellipse cx="1811.2512" cy="369.1502" fill="#FEFECE" filter="url(#forpuw3p72o94)" rx="107.2512" ry="23.8502" style="stroke:#A80036;stroke-width:1.5;"/><text fill="#000000" font-family="sans-serif" font-size="14" lengthAdjust="spacing" textLength="177" x="1722.7512" y="372.8788">Authorize DGS to send SMS</text><ellipse cx="2262.7412" cy="116.2482" fill="#FEFECE" filter="url(#forpuw3p72o94)" rx="102.7412" ry="22.9482" style="stroke:#A80036;stroke-width:1.5;"/><text fill="#000000" font-family="sans-serif" font-size="14" lengthAdjust="spacing" textLength="167" x="2179.2412" y="119.9768">Manage Covid-19 Process</text><ellipse cx="2063.2982" cy="248.0596" fill="#FEFECE" filter="url(#forpuw3p72o94)" rx="106.7982" ry="23.7596" style="stroke:#A80036;stroke-width:1.5;"/><text fill="#000000" font-family="sans-serif" font-size="14" lengthAdjust="spacing" textLength="176" x="1975.2982" y="251.7882">Monitor vaccination process</text><!--MD5=[225c7967fbc8272185b287e98990934c]
link Admin to Configure and manage core information--><path d="M147.5,158.08 C147.5,175.49 147.5,195.6 147.5,212.32 " fill="none" id="Admin-to-Configure and manage core information" style="stroke:#A80036;stroke-width:1.0;"/><polygon fill="#A80036" points="147.5,217.4,151.5,208.4,147.5,212.4,143.5,208.4,147.5,217.4" style="stroke:#A80036;stroke-width:1.0;"/><!--MD5=[4394c990c6291071513a742f819601c5]
link Admin to Register Centers, Users, center coordinators,\nreceptionists,nurses--><path d="M189.01,116.3 C198.97,116.3 208.94,116.3 218.91,116.3 " fill="none" id="Admin-to-Register Centers, Users, center coordinators,\nreceptionists,nurses" style="stroke:#A80036;stroke-width:1.0;"/><polygon fill="#A80036" points="224.12,116.3,215.12,112.3,219.12,116.3,215.12,120.3,224.12,116.3" style="stroke:#A80036;stroke-width:1.0;"/><!--MD5=[0dd840660a24f9065951a32c7d1924a8]
link Receptionists to Register arrival of User--><path d="M654.5,158.08 C654.5,178.86 654.5,203.5 654.5,221.62 " fill="none" id="Receptionists-to-Register arrival of User" style="stroke:#A80036;stroke-width:1.0;"/><polygon fill="#A80036" points="654.5,227.02,658.5,218.02,654.5,222.02,650.5,218.02,654.5,227.02" style="stroke:#A80036;stroke-width:1.0;"/><!--MD5=[b66c04f6077bb084c84f6670dfba38dc]
link Receptionists to Acknowledge system that the user\n is ready for vaccination--><path d="M697.13,116.3 C707.14,116.3 717.15,116.3 727.16,116.3 " fill="none" id="Receptionists-to-Acknowledge system that the user\n is ready for vaccination" style="stroke:#A80036;stroke-width:1.0;"/><polygon fill="#A80036" points="732.39,116.3,723.39,112.3,727.39,116.3,723.39,120.3,732.39,116.3" style="stroke:#A80036;stroke-width:1.0;"/><!--MD5=[f22dd6d821539327cf69273d5c218fa7]
link Nurse to Issue and Deliver vaccination certificate--><path d="M1061.82,148.44 C1050.08,167.99 1034.95,193.22 1022.9,213.29 " fill="none" id="Nurse-to-Issue and Deliver vaccination certificate" style="stroke:#A80036;stroke-width:1.0;"/><polygon fill="#A80036" points="1020.23,217.76,1028.2904,212.1005,1022.8025,213.4725,1021.4305,207.9846,1020.23,217.76" style="stroke:#A80036;stroke-width:1.0;"/><!--MD5=[5dc7b72d8d520b6e9a9be58744628ed6]
link Nurse to Check list of Users present for vaccination--><path d="M1099.19,78.62 C1107.83,65.43 1119.44,52.09 1134,44.8 C1211.5,6 1243.82,28.79 1329,44.8 C1370.32,52.57 1414.29,69.37 1448.83,84.74 " fill="none" id="Nurse-to-Check list of Users present for vaccination" style="stroke:#A80036;stroke-width:1.0;"/><polygon fill="#A80036" points="1453.42,86.8,1446.8436,79.4685,1448.8575,84.7547,1443.5712,86.7685,1453.42,86.8" style="stroke:#A80036;stroke-width:1.0;"/><!--MD5=[1784bae892b37ddfbb02322c8ecca86a]
link Nurse to Check Users Info and health conditions--><path d="M1099.08,138.36 C1120.02,162.49 1152.24,200.86 1160.5,217.8 C1178.64,255.01 1187.98,301.95 1192.55,333.43 " fill="none" id="Nurse-to-Check Users Info and health conditions" style="stroke:#A80036;stroke-width:1.0;"/><polygon fill="#A80036" points="1193.3,338.73,1195.9985,329.258,1192.5989,333.7794,1188.0775,330.3798,1193.3,338.73" style="stroke:#A80036;stroke-width:1.0;"/><!--MD5=[11050891bc218c175233d5ba160652ec]
link Nurse to Register event in system--><path d="M1099.08,116.3 C1108.99,116.3 1118.9,116.3 1128.81,116.3 " fill="none" id="Nurse-to-Register event in system" style="stroke:#A80036;stroke-width:1.0;"/><polygon fill="#A80036" points="1134,116.3,1125,112.3,1129,116.3,1125,120.3,1134,116.3" style="stroke:#A80036;stroke-width:1.0;"/><!--MD5=[48899947962ab8d9c916561d6cd0d708]
link User to Request Vaccination Certificate--><path d="M1699.84,158.08 C1687.18,177.43 1672.34,200.14 1660.79,217.8 " fill="none" id="User-to-Request Vaccination Certificate" style="stroke:#A80036;stroke-width:1.0;"/><polygon fill="#A80036" points="1657.93,222.17,1666.2085,216.8346,1660.6705,217.9879,1659.5172,212.4499,1657.93,222.17" style="stroke:#A80036;stroke-width:1.0;"/><!--MD5=[7a8398368b6b95d277db7bba94547275]
link User to Schedule vaccination--><path d="M1756.68,116.3 C1766.49,116.3 1776.29,116.3 1786.1,116.3 " fill="none" id="User-to-Schedule vaccination" style="stroke:#A80036;stroke-width:1.0;"/><polygon fill="#A80036" points="1791.22,116.3,1782.22,112.3,1786.22,116.3,1782.22,120.3,1791.22,116.3" style="stroke:#A80036;stroke-width:1.0;"/><!--MD5=[7140f9c4b735577b7d69156e493c38ef]
link User to Authorize DGS to send SMS--><path d="M1748.85,157.98 C1758.05,175.93 1768.23,197.52 1775.5,217.8 C1790.37,259.28 1800.96,309.38 1806.66,340.04 " fill="none" id="User-to-Authorize DGS to send SMS" style="stroke:#A80036;stroke-width:1.0;"/><polygon fill="#A80036" points="1807.59,345.15,1809.9033,335.5767,1806.6893,340.2318,1802.0341,337.0178,1807.59,345.15" style="stroke:#A80036;stroke-width:1.0;"/><!--MD5=[a6d49fd216c696b26dd4ff070b026fdd]
link CC to Manage Covid-19 Process--><path d="M2124.52,116.3 C2134.54,116.3 2144.56,116.3 2154.58,116.3 " fill="none" id="CC-to-Manage Covid-19 Process" style="stroke:#A80036;stroke-width:1.0;"/><polygon fill="#A80036" points="2159.82,116.3,2150.82,112.3,2154.82,116.3,2150.82,120.3,2159.82,116.3" style="stroke:#A80036;stroke-width:1.0;"/><!--MD5=[22da8b83b0541b9d24713afeb64b6f98]
link CC to Monitor vaccination process--><path d="M2063.5,158.08 C2063.5,177.78 2063.5,200.95 2063.5,218.74 " fill="none" id="CC-to-Monitor vaccination process" style="stroke:#A80036;stroke-width:1.0;"/><polygon fill="#A80036" points="2063.5,224.08,2067.5,215.08,2063.5,219.08,2059.5,215.08,2063.5,224.08" style="stroke:#A80036;stroke-width:1.0;"/><!--MD5=[aeab16bc6aac12240e3546588529b1e9]
@startuml
'https://plantuml.com/use-case-diagram

:Administrator: as Admin
:Nurse:
:Receptionists:
:SNS User: as User
:Center Coordinator: as CC

Admin - -> (Configure and manage core information)
Admin -> (Register Centers, Users, center coordinators,\nreceptionists,nurses)

Receptionists - -> (Register arrival of User)
Receptionists -> (Acknowledge system that the user\n is ready for vaccination)

Nurse - -> (Issue and Deliver vaccination certificate)
Nurse -> (Check list of Users present for vaccination)
Nurse - - -> (Check Users Info and health conditions)
Nurse -> (Register event in system)


User - -> (Request Vaccination Certificate)
User -> (Schedule vaccination)
User - - -> (Authorize DGS to send SMS)


CC -> (Manage Covid-19 Process)
CC - -> (Monitor vaccination process)


@enduml

@startuml

:Administrator: as Admin
:Nurse:
:Receptionists:
:SNS User: as User
:Center Coordinator: as CC

Admin - -> (Configure and manage core information)
Admin -> (Register Centers, Users, center coordinators,\nreceptionists,nurses)

Receptionists - -> (Register arrival of User)
Receptionists -> (Acknowledge system that the user\n is ready for vaccination)

Nurse - -> (Issue and Deliver vaccination certificate)
Nurse -> (Check list of Users present for vaccination)
Nurse - - -> (Check Users Info and health conditions)
Nurse -> (Register event in system)


User - -> (Request Vaccination Certificate)
User -> (Schedule vaccination)
User - - -> (Authorize DGS to send SMS)


CC -> (Manage Covid-19 Process)
CC - -> (Monitor vaccination process)


@enduml

PlantUML version 1.2022.1(Tue Feb 01 18:19:58 GMT 2022)
(GPL source distribution)
Java Runtime: OpenJDK Runtime Environment
JVM: OpenJDK 64-Bit Server VM
Default Encoding: Cp1252
Language: en
Country: GB
--></g></svg>